<svg width="24" height="22" viewBox="0 0 24 22" fill="none" xmlns="http://www.w3.org/2000/svg">
<path d="M12 3C7.58997 3 4 6.58717 4 11C4 15.4128 7.58997 18.9999 12 18.9999C16.41 18.9999 19.9999 15.41 19.9999 11C19.9999 6.58997 16.41 3 12 3ZM12 18.0681C8.10249 18.0681 4.93185 14.8977 4.93185 11C4.93185 7.10225 8.10225 3.93185 12 3.93185C15.8977 3.93185 19.0681 7.10225 19.0681 11C19.0681 14.8977 15.8977 18.0681 12 18.0681Z" fill="#005CD9"/>
<path d="M14.0294 12.0601L12.385 13.7045L12.384 7.24443C12.384 6.9878 12.1747 6.7785 11.9181 6.7785C11.6615 6.7785 11.4522 6.98781 11.4522 7.24443V13.7029L9.8078 12.0585C9.62579 11.8765 9.33004 11.8765 9.14895 12.0585C8.96695 12.2405 8.96695 12.5362 9.14895 12.7173L11.5878 15.1562C11.6088 15.1771 11.6343 15.1981 11.6597 15.2145C11.6716 15.2217 11.6834 15.2263 11.6943 15.2327C11.708 15.2418 11.7244 15.249 11.7407 15.2563C11.7571 15.2636 11.7708 15.2654 11.7871 15.27C11.8008 15.2745 11.8126 15.2791 11.8272 15.2818C11.8572 15.2891 11.8882 15.2909 11.9182 15.2909C11.9482 15.2909 11.9792 15.2882 12.0092 15.2818C12.0228 15.2791 12.0374 15.2745 12.0492 15.27C12.0656 15.2654 12.0793 15.2609 12.0956 15.2563C12.112 15.249 12.1257 15.2399 12.142 15.2327C12.1539 15.2254 12.1657 15.2208 12.1766 15.2145C12.2021 15.1981 12.2258 15.1771 12.2485 15.1562L14.6874 12.7173C14.8694 12.5353 14.8694 12.2396 14.6874 12.0585C14.5072 11.8765 14.2104 11.8781 14.0294 12.0601Z" fill="#005CD9"/>
</svg>
