<svg width="24" height="22" viewBox="0 0 24 22" fill="none" xmlns="http://www.w3.org/2000/svg">
<path d="M12 13.1053C12.465 13.1053 12.8421 13.4824 12.8421 13.9474C12.8421 14.4123 12.465 14.7895 12 14.7895C11.535 14.7895 11.1579 14.4123 11.1579 13.9474C11.1579 13.4824 11.535 13.1053 12 13.1053ZM12.4211 12.0105C12.4211 12.2431 12.2325 12.4316 12 12.4316C11.7675 12.4316 11.5789 12.2431 11.5789 12.0105V11.5735C11.5789 11.0888 11.8986 10.6654 12.3633 10.5259C12.893 10.3671 13.2632 9.87756 13.2632 9.31579C13.2632 8.63801 12.6778 8.05263 12 8.05263C11.3029 8.05263 10.7368 8.61865 10.7368 9.31579C10.7368 9.54833 10.5483 9.73684 10.3158 9.73684C10.0832 9.73684 9.89474 9.54833 9.89474 9.31579C9.89474 8.15356 10.8378 7.21053 12 7.21053C13.1429 7.21053 14.1053 8.17293 14.1053 9.31579C14.1053 10.2521 13.4887 11.0677 12.6052 11.3326C12.4945 11.3658 12.4211 11.4631 12.4211 11.5735V12.0105ZM19.1579 11C19.1579 7.04644 15.9536 3.84211 12 3.84211C8.04644 3.84211 4.84211 7.04644 4.84211 11C4.84211 14.9536 8.04644 18.1579 12 18.1579C15.9536 18.1579 19.1579 14.9536 19.1579 11ZM20 11C20 15.4186 16.4186 19 12 19C7.58135 19 4 15.4186 4 11C4 6.58135 7.58135 3 12 3C16.4186 3 20 6.58135 20 11Z" fill="#005CD9"/>
</svg>
