<svg width="24" height="22" viewBox="0 0 24 22" fill="none" xmlns="http://www.w3.org/2000/svg">
<path d="M5.02128 8.95745H6.04255C6.12766 8.70878 6.22805 8.46543 6.34242 8.23072L5.62101 7.50931C5.22274 7.11105 5.22274 6.46277 5.62101 6.06582L7.06582 4.621C7.46409 4.22274 8.11236 4.22274 8.50931 4.621L9.23072 5.34242C9.46543 5.22805 9.70746 5.12766 9.95745 5.04255V4.02128C9.95745 3.45811 10.4156 3 10.9787 3H13.0213C13.5844 3 14.0426 3.45811 14.0426 4.02128V5.04255C14.2912 5.12766 14.5346 5.22805 14.7693 5.34242L15.4907 4.621C15.889 4.22274 16.5372 4.22274 16.9342 4.621L18.379 6.06582C18.7773 6.46408 18.7773 7.11236 18.379 7.50931L17.6576 8.23072C17.7719 8.46543 17.8723 8.70746 17.9574 8.95745H18.9787C19.5419 8.95745 20 9.41556 20 9.97872V12.0213C20 12.5844 19.5419 13.0426 18.9787 13.0426H17.9574C17.8723 13.2912 17.7719 13.5346 17.6576 13.7693L18.379 14.4907C18.7773 14.889 18.7773 15.5372 18.379 15.9342L16.9342 17.379C16.5359 17.7773 15.8876 17.7773 15.4907 17.379L14.7693 16.6576C14.5346 16.7719 14.2925 16.8723 14.0426 16.9574V17.9787C14.0426 18.5419 13.5844 19 13.0213 19H10.9787C10.4156 19 9.95745 18.5419 9.95745 17.9787V16.9574C9.70878 16.8723 9.46543 16.7719 9.23072 16.6576L8.50931 17.379C8.11105 17.7773 7.46278 17.7773 7.06582 17.379L5.62101 15.9342C5.22274 15.5359 5.22274 14.8876 5.62101 14.4907L6.34242 13.7693C6.22806 13.5346 6.12766 13.2925 6.04255 13.0426H5.02128C4.45811 13.0426 4 12.5844 4 12.0213V9.97872C4 9.41556 4.45811 8.95745 5.02128 8.95745ZM4.68085 12.0213C4.68085 12.2088 4.83378 12.3617 5.02128 12.3617H6.29122C6.44082 12.3617 6.5738 12.4601 6.61835 12.6051C6.72872 12.9781 6.87699 13.3371 7.05917 13.6722C7.13098 13.8052 7.10704 13.9681 7.00132 14.0758L6.10438 14.9727C5.97141 15.1057 5.97141 15.3218 6.10438 15.4541L7.5492 16.8989C7.68218 17.0319 7.89827 17.0319 8.03058 16.8989L8.92752 16.002C9.03456 15.8949 9.19812 15.871 9.33111 15.9441C9.66622 16.1263 10.0253 16.2746 10.3983 16.385C10.5432 16.4275 10.6416 16.5605 10.6416 16.7121V17.982C10.6416 18.1695 10.7945 18.3225 10.982 18.3225H13.0246C13.2121 18.3225 13.365 18.1695 13.365 17.982V16.7121C13.365 16.5625 13.4634 16.4295 13.6084 16.385C13.9814 16.2746 14.3404 16.1263 14.6755 15.9441C14.7267 15.9169 14.7826 15.9036 14.8371 15.9036C14.9255 15.9036 15.0126 15.9375 15.0771 16.004L15.9741 16.9009C16.107 17.0339 16.3231 17.0339 16.4554 16.9009L17.9003 15.4561C18.0332 15.3231 18.0332 15.107 17.9003 14.9747L17.0033 14.0778C16.8963 13.9707 16.8723 13.8072 16.9455 13.6742C17.1276 13.3391 17.2759 12.9801 17.3863 12.607C17.4288 12.4621 17.5618 12.3637 17.7134 12.3637H18.9834C19.1709 12.3637 19.3238 12.2108 19.3238 12.0233V9.98072C19.3238 9.79321 19.1709 9.64029 18.9834 9.64029H17.7134C17.5638 9.64029 17.4308 9.54189 17.3863 9.39694C17.2759 9.02394 17.1276 8.66489 16.9455 8.32979C16.8737 8.19681 16.8976 8.03391 17.0033 7.9262L17.9003 7.02926C18.0332 6.89628 18.0332 6.68019 17.9003 6.54788L16.4554 5.10307C16.3225 4.97009 16.1064 4.97009 15.9741 5.10307L15.0771 6C14.9701 6.10705 14.8065 6.13099 14.6735 6.05785C14.3384 5.87567 13.9794 5.7274 13.6064 5.61703C13.4614 5.57448 13.363 5.44151 13.363 5.2899V4.01996C13.363 3.83245 13.2101 3.67953 13.0226 3.67953H10.98C10.7925 3.67953 10.6396 3.83246 10.6396 4.01996V5.2899C10.6396 5.4395 10.5412 5.57249 10.3963 5.61703C10.0233 5.7274 9.66422 5.87567 9.32912 6.05785C9.19614 6.12966 9.03324 6.10572 8.92553 6L8.02859 5.10307C7.89561 4.97009 7.67952 4.97009 7.54721 5.10307L6.1024 6.54788C5.96942 6.68086 5.96942 6.89696 6.1024 7.02926L6.99933 7.9262C7.10638 8.03325 7.13032 8.1968 7.05718 8.32979C6.875 8.66491 6.72673 9.02394 6.61636 9.39694C6.57381 9.54189 6.44084 9.64029 6.28923 9.64029H5.01929C4.83178 9.64029 4.67886 9.79322 4.67886 9.98072V12.0233L4.68085 12.0213Z" fill="#005CD9"/>
<path d="M12 6.40426C14.5346 6.40426 16.5957 8.46536 16.5957 11C16.5957 13.5346 14.5346 15.5957 12 15.5957C9.46536 15.5957 7.40426 13.5346 7.40426 11C7.40426 8.46536 9.46536 6.40426 12 6.40426ZM12 14.9149C14.1583 14.9149 15.9149 13.1583 15.9149 11C15.9149 8.8417 14.1583 7.08511 12 7.08511C9.8417 7.08511 8.08511 8.8417 8.08511 11C8.08511 13.1583 9.8417 14.9149 12 14.9149Z" fill="#005CD9"/>
</svg>
