<svg width="30" height="31" viewBox="0 0 30 31" fill="none" xmlns="http://www.w3.org/2000/svg">
<path d="M25.3875 8.95227C25.2645 8.95227 25.1599 8.9276 25.0738 8.87828C24.9877 8.82896 24.92 8.74264 24.8708 8.61933L23.8007 6.10382L21.107 4.92005C20.984 4.87072 20.8979 4.8029 20.8487 4.71659C20.7995 4.63027 20.7749 4.52546 20.7749 4.40215C20.7749 4.27884 20.7995 4.17403 20.8487 4.08771C20.8979 4.00139 20.984 3.93357 21.107 3.88425L23.8007 2.73747L24.8708 0.332936C24.92 0.209626 24.9877 0.123309 25.0738 0.0739857C25.1599 0.0246619 25.2645 0 25.3875 0C25.5105 0 25.615 0.0246619 25.7011 0.0739857C25.7872 0.123309 25.8549 0.209626 25.9041 0.332936L26.9742 2.73747L29.6679 3.88425C29.7909 3.93357 29.877 4.00139 29.9262 4.08771C29.9754 4.17403 30 4.27884 30 4.40215C30 4.52546 29.9754 4.63027 29.9262 4.71659C29.877 4.8029 29.7909 4.87072 29.6679 4.92005L26.9742 6.10382L25.9041 8.61933C25.8549 8.74264 25.7872 8.82896 25.7011 8.87828C25.615 8.9276 25.5105 8.95227 25.3875 8.95227ZM25.3875 31C25.2891 31 25.1907 30.9753 25.0923 30.926C24.9938 30.8767 24.92 30.7904 24.8708 30.6671L23.8007 28.2625L21.1439 27.1158C21.0209 27.0664 20.9348 26.9986 20.8856 26.9123C20.8364 26.826 20.8118 26.7212 20.8118 26.5979C20.8118 26.4745 20.8364 26.3697 20.8856 26.2834C20.9348 26.1971 21.0209 26.1293 21.1439 26.08L23.8007 24.9332L24.8708 22.3807C24.92 22.2574 24.9877 22.171 25.0738 22.1217C25.1599 22.0724 25.2645 22.0477 25.3875 22.0477C25.5105 22.0477 25.615 22.0724 25.7011 22.1217C25.7872 22.171 25.8549 22.2574 25.9041 22.3807L26.9742 24.9332L29.631 26.08C29.754 26.1293 29.8401 26.1971 29.8893 26.2834C29.9385 26.3697 29.9631 26.4745 29.9631 26.5979C29.9631 26.7212 29.9385 26.826 29.8893 26.9123C29.8401 26.9986 29.754 27.0664 29.631 27.1158L26.9742 28.2625L25.9041 30.6671C25.8549 30.7904 25.7811 30.8767 25.6827 30.926C25.5843 30.9753 25.4859 31 25.3875 31ZM9.18819 24.6002C8.99139 24.6002 8.80074 24.5448 8.61624 24.4338C8.43173 24.3228 8.29028 24.1687 8.19188 23.9714L5.79336 18.8294L0.627306 16.4988C0.430504 16.4002 0.276753 16.2584 0.166052 16.0734C0.0553506 15.8884 0 15.6973 0 15.5C0 15.3027 0.0553506 15.1116 0.166052 14.9266C0.276753 14.7416 0.430504 14.5998 0.627306 14.5012L5.79336 12.1706L8.19188 7.06563C8.29028 6.84368 8.43173 6.67721 8.61624 6.56623C8.80074 6.45525 8.99139 6.39976 9.18819 6.39976C9.38499 6.39976 9.57565 6.45525 9.76015 6.56623C9.94465 6.67721 10.0861 6.83134 10.1845 7.02864L12.6199 12.1706L17.7491 14.5012C17.9705 14.5998 18.1365 14.7416 18.2472 14.9266C18.3579 15.1116 18.4133 15.3027 18.4133 15.5C18.4133 15.6973 18.3579 15.8884 18.2472 16.0734C18.1365 16.2584 17.9705 16.4002 17.7491 16.4988L12.6199 18.8294L10.1845 23.9714C10.0861 24.1933 9.94465 24.3536 9.76015 24.4523C9.57565 24.5509 9.38499 24.6002 9.18819 24.6002Z" fill="url(#paint0_linear_37_361)"/>
<defs>
<linearGradient id="paint0_linear_37_361" x1="15" y1="0" x2="15" y2="31" gradientUnits="userSpaceOnUse">
<stop stop-color="#001E96"/>
<stop offset="0.5" stop-color="#005CD9"/>
<stop offset="1" stop-color="#008CE3"/>
</linearGradient>
</defs>
</svg>
